<svg xmlns="http://www.w3.org/2000/svg">
	<g>
		<path
			d="m0 0c-0.702-1.622-1.42-3.238-2.117-4.85 0.035 0.067 0.071 0.135 0.107 0.203 0.771 1.459 1.485 2.951 2.173 4.458-0.059 0.059-0.112 0.122-0.163 0.189"
			transform="matrix(.35278 0 0 -.35278 50.59 55.223)"
			style="fill: rgb(249, 169, 31)"
		/>
	</g>
	<g>
		<path
			d="m0 0c-1.063-4.675-3.388-9.239-5.185-13.483-3.331-7.867-8.291-16.905-8.211-25.625 0.034-3.705 0.916-7.346 0.74-11.064-0.183-3.868-1.235-7.69-1.897-11.49-1.596-9.156-2.935-18.37-3.9-27.615-0.023-0.211-0.079-0.396-0.15-0.571-0.031-0.768-0.062-1.537-0.062-2.309-1e-3 -1.678-1.537-2.295-2.754-1.845-1.078-1.018-3.272-0.441-3.526 1.484-0.899 6.829-0.675 13.692-0.237 20.566-0.985-7.377-1.167-14.487-0.996-22.006 0.054-2.365-3.626-2.884-4.139-0.56-0.609 2.757-0.895 5.552-0.954 8.372-0.355-3.072-0.68-6.153-1.058-9.251-0.323-2.643-3.886-2.691-4.151 0-0.767 7.738 1.093 16.073 2.761 23.606 0.531 2.395 1.124 4.774 1.745 7.146-0.439-1.195-0.845-2.402-1.207-3.626-2.748-9.324-4.065-18.977-6.528-28.369-0.645-2.462-4.336-1.414-3.792 1.045 2.098 9.493 3.034 19.249 5.45 28.666 2.108 8.212 5.577 15.585 9.408 23.104 3.923 7.698 6.878 15.705 10.191 23.664 2.745 6.599 5.947 13.548 7.021 20.731-37.451-1.178-67.455-31.887-67.455-69.625 0-35.633 26.753-64.998 61.265-69.156 2.881 8.217 5.382 16.553 8.662 24.639 0.932 2.298 1.992 4.705 2.802 7.167-0.098 0.1-0.197 0.197-0.286 0.316-6.769 8.905-3.811 23.773 0.261 33.15 0.425 0.979 0.885 1.935 1.359 2.881 2.963 8.253 8.429 15.787 14.189 22.179 1.452 1.612 3.255 3.39 5.244 4.451 0.188 0.23 0.378 0.459 0.565 0.69 0.828 1.02 1.908 0.891 2.665 0.25 1.148 0.037 2.327-0.259 3.513-1.042 4.279-2.825 6.361-9.209 7.731-13.867 0.96-3.265 1.415-6.52 1.467-9.743 0.814-5.824 0.643-11.844-0.529-17.957-1.3-6.787-3.514-14.066-7.817-19.57-3.945-5.049-9.633-9.954-14.644-13.972-3.592-6.677-7.038-13.439-11.047-19.843 35.805 2.912 63.962 32.872 63.962 69.427 0 35.361-26.345 64.55-60.476 69.055"
			transform="matrix(.35278 0 0 -.35278 27.83 8.197)"
			style="fill: rgb(249, 169, 31)"
		/>
	</g>
	<g>
		<path
			d="m0 0c-0.03 0.441-0.015 0.877 0.053 1.309 0.172-0.39 0.225-0.87 0.207-1.372-0.087 0.015-0.174 0.043-0.26 0.063m-4.892 13.781c1.252 3.497 2.543 6.98 3.873 10.448 0.833 2.171 1.676 5.139 3.639 6.678-0.539-5.853-2.073-11.618-4.564-16.944-0.669-1.428-1.403-2.827-2.2-4.188-0.742-1.268-1.48-2.717-2.601-3.694-0.276-0.24-0.649-0.512-1.037-0.611 0.944 2.777 1.902 5.549 2.89 8.311m35.03 24.453c-0.248 6.438-1.892 13.154-5.209 18.722-1.451 2.436-3.486 4.792-6.287 5.644-3.142 0.955-6.248-0.452-8.784-2.249-2.533-1.796-4.953-3.797-7.341-5.78-2.368-1.967-4.665-4.017-6.825-6.212-4.173-4.241-7.799-9.159-9.678-14.86-2.146-6.507-1.659-13.534 0.299-20.021 0.506-1.678 1.111-3.322 1.79-4.937 0.295-0.706 0.605-1.406 0.929-2.1 0.329-0.703 0.659-1.441 1.258-1.959-0.615-1.864-1.22-3.732-1.801-5.607-4.028-13.003-7.686-26.092-10.669-39.378-1.679-7.481-3.118-15.009-4.462-22.557-0.073-0.412 0.555-0.591 0.633-0.174 2.474 13.129 5.606 26.15 9.115 39.038 2.569 9.428 5.437 18.768 8.553 28.027 2.208-0.295 4.195 2.905 5.153 4.496 3.491 5.784 5.859 12.267 6.913 18.939 0.263 1.669 0.449 3.349 0.556 5.035 0.03 0.456-0.522 0.929-0.973 0.742-2.45-1.02-3.739-3.273-4.717-5.621-1.257-3.017-2.359-6.109-3.485-9.176-1.463-3.987-2.877-7.994-4.231-12.02-0.146 0.262-0.267 0.543-0.375 0.772-0.72 1.518-1.366 3.069-1.932 4.652-2.143 6.005-3.169 12.589-1.744 18.882 1.228 5.422 4.169 10.236 7.808 14.377 3.755 4.271 8.186 7.885 12.673 11.354 2.299 1.777 4.719 3.91 7.598 4.642 2.818 0.716 5.241-0.683 7.01-2.798 1.836-2.195 3.035-4.985 3.994-7.655 1.026-2.856 1.745-5.839 2.1-8.855 0.711-6.054 0.072-12.234-1.961-17.986-1.83-5.179-4.761-9.96-8.509-13.972-1.874-2.006-3.944-3.834-6.19-5.414-2.318-1.631-4.896-3.257-7.638-4.045-0.526-0.152-1.054-0.242-1.58-0.297 0.017 1.737-0.539 3.421-2.371 4.087-0.531 0.193-1.023-0.223-1.2-0.682-0.544-1.404-0.642-2.862-0.407-4.342 0.054-0.342 0.385-0.582 0.686-0.686 0.362-0.125 0.726-0.215 1.091-0.281-0.064-0.235-0.127-0.448-0.182-0.621-0.937-2.953-1.953-5.884-2.944-8.82-1.998-5.918-4.034-11.824-6.104-17.719-4.122-11.743-8.396-23.432-12.796-35.074-1.23-3.256-2.472-6.508-3.725-9.755-1.268-3.285-2.393-6.633-3.686-9.906-0.376-0.954 1.164-1.368 1.537-0.424 1.193 3.022 2.535 5.984 3.711 9.013 1.174 3.023 2.338 6.05 3.493 9.08 2.291 6.016 4.539 12.048 6.748 18.095 4.433 12.138 8.708 24.333 12.822 36.583 0.577 1.718 1.151 3.437 1.721 5.156 0.468 1.41 1.035 2.824 1.36 4.276 2.263 0.135 4.494 1.116 6.475 2.186 2.629 1.42 5.093 3.146 7.356 5.097 4.511 3.888 8.217 8.775 10.71 14.185 2.722 5.905 3.963 12.41 3.714 18.903"
			transform="matrix(.35278 0 0 -.35278 31.11 30.323)"
			style="fill: rgb(33, 34, 34)"
		/>
	</g>
	<g>
		<path
			d="m0 0c-0.112 0.774-0.074 1.628 0.229 2.351 0.086-1.056 0.073-2.116-0.032-3.165-0.078 0.266-0.156 0.532-0.197 0.814m-8.301-21.91c0.917-0.025 1.834-0.152 2.741-0.331-2.878-1.087-5.889-1.761-8.827-2.668 1.044 2.151 3.738 3.062 6.086 2.999m23.937 81.993-9.847-29.365c-1.627-4.854-3.255-9.709-4.883-14.563-0.821-2.447-1.641-4.894-2.462-7.342-0.726-2.167-1.522-4.323-2.146-6.523-1.092-3.843-1.724-8.623 1.421-11.7 0.353-0.346 0.927-0.262 1.184 0.152 0.822 1.33 1.452 2.753 1.924 4.223 1.005-1.34 2.072-2.641 2.63-4.23 0.928-2.647 0.056-5.434-1.508-7.647-1.372-1.942-3.261-3.352-5.356-4.398-1.593 0.438-3.253 0.776-4.894 0.823-3.355 0.096-7.341-1.635-7.874-5.34-0.071-0.495 0.308-1.08 0.885-0.884 3.93 1.331 8.315 2.107 12.127 3.892 1.371-0.389 2.612-1.025 2.797-2.595 0.085-0.717-6e-3 -1.448-0.09-2.161-0.117-0.992-0.241-1.984-0.361-2.976-0.221-1.819-0.44-3.637-0.662-5.456-0.454-3.721-0.917-7.44-1.375-11.16-0.397-3.217-0.793-6.433-1.19-9.65-0.83 3.052-0.714 6.315-0.398 9.456 0.408 4.074 1.183 8.159 0.937 12.27-0.134 2.244-0.601 4.427-1.535 6.478-0.258 0.567-1.018 0.309-1.196-0.157-1.702-4.433-2.813-9.071-3.316-13.793-0.25-2.344-0.319-4.69-0.286-7.046 0.025-1.709 0.039-3.449-0.276-5.135-0.259-1.382-0.752-2.713-1.702-3.691 0.604 8.562 1.21 17.125 1.814 25.687 0.039 0.55 0.177 1.191 0.123 1.739-0.038 0.386-0.33 0.631-0.657 0.809-0.564 0.306-1.224 0.235-1.773-0.064-1.363-0.741-2.009-2.379-2.298-3.811-0.896-4.448-1.792-8.896-2.688-13.344-0.424-2.101-0.847-4.201-1.269-6.301 0.302 5.615 0.605 11.229 0.907 16.845l0.396 7.346c0.032 0.585-0.732 0.845-1.122 0.465-6.214-6.071-4.45-15.773-6.452-23.478-0.35-1.343-0.84-2.648-1.481-3.873 0.819 7.639 1.76 15.262 2.903 22.861 0.613 4.076 1.217 8.166 2.045 12.205 0.776 3.788 1.802 7.566 3.497 11.055 1.712 3.522 4.141 6.603 6.316 9.839 2.157 3.208 3.895 6.642 5.342 10.223 3.018 7.471 4.885 15.381 6.995 23.139 2.276 8.36 4.52 16.727 6.707 25.109 0.275 1.048 0.548 2.096 0.822 3.144 0.097 0.375-0.471 0.531-0.581 0.159-2.459-8.35-4.894-16.708-7.266-25.084-1.171-4.131-2.334-8.265-3.513-12.394-1.065-3.732-2.151-7.46-3.491-11.105-1.35-3.671-2.969-7.249-5.015-10.587-2.062-3.362-4.583-6.423-6.54-9.852-3.934-6.894-5.035-14.94-6.237-22.661-1.324-8.512-2.44-17.057-3.344-25.624-0.113-1.068-0.222-2.136-0.325-3.205-0.056-0.577 0.812-0.943 1.182-0.49 5.504 6.741 3.518 16.105 5.966 23.924 0.493 1.57 1.206 3.045 2.176 4.348-0.427-7.964-0.853-15.928-1.281-23.893-0.131-2.448-0.263-4.897-0.394-7.346-0.039-0.727 1.137-0.899 1.283-0.174 1.855 9.223 3.711 18.446 5.566 27.669 0.2 0.996 0.352 1.948 0.91 2.816 0.26 0.405 0.849 1.19 1.394 0.999-0.672-9.497-1.346-18.993-2.019-28.49-0.036-0.509 0.575-0.791 0.981-0.563 3.225 1.817 3.67 5.817 3.71 9.16 0.026 2.194-0.048 4.378 0.099 6.57 0.168 2.513 0.52 5.011 1.047 7.474 0.464 2.163 1.069 4.292 1.794 6.381 1.065-3.338 0.9-6.958 0.54-10.416-0.423-4.062-1.185-8.148-0.889-12.246 0.163-2.235 0.665-4.405 1.642-6.427 0.315-0.654 1.15-0.238 1.22 0.33 0.998 8.102 1.98 16.205 2.994 24.304 0.259 2.067 0.517 4.134 0.775 6.2 0.205 1.635 0.634 3.468-0.04 5.047-0.425 0.994-1.236 1.627-2.167 2.061 1.294 0.759 2.496 1.671 3.555 2.821 1.859 2.02 3.251 4.624 3.311 7.417 0.069 3.091-1.744 5.364-3.465 7.735-0.195 0.267-0.381 0.538-0.561 0.812 0.526 2.458 0.593 5.012 0.152 7.519-0.081 0.458-0.732 0.713-1.108 0.45-2.143-1.505-2.298-4.363-1.441-6.652 0.208-0.558 0.488-1.074 0.795-1.576-0.363-1.434-0.899-2.821-1.603-4.13-1.863 2.598-1.264 6.256-0.465 9.186 0.582 2.135 1.348 4.223 2.051 6.32 0.795 2.368 1.589 4.737 2.383 7.105l9.568 28.535 5.4 16.103c0.302 0.903-1.123 1.29-1.424 0.393"
			transform="matrix(.35278 0 0 -.35278 22.27 21.703)"
			style="fill: rgb(33, 34, 34)"
		/>
	</g>
</svg>
